<svg xmlns="http://www.w3.org/2000/svg" width="345" height="235.75" viewBox="0 0 345 235.75"><defs><clipPath id="a"><path data-name="Rectangle 122198" fill="none" d="M0 0h286.95v63.306H0z"/></clipPath></defs><g data-name="Group 67908"><g data-name="Group 35340"><path data-name="Rectangle 121832" fill="#fff" d="M0 0h345v235.75H0z"/></g><g data-name="Group 66676"><g data-name="Group 35955" clip-path="url(#a)" transform="translate(29.163 85.838)"><path data-name="Path 252896" d="M31.653 0a31.658 31.658 0 00-6.273.63.675.675 0 00-.533.738 7.372 7.372 0 0014.617.232.674.674 0 00-.508-.753A31.737 31.737 0 0031.653 0" fill="#fe3b67"/><path data-name="Path 252897" d="M4.778 16.7l12.724 2.168a3.356 3.356 0 003.909-3.575l-.978-12.3a.674.674 0 00-.933-.566A31.764 31.764 0 004.312 15.694a.673.673 0 00.465 1.006" fill="#f3b411"/><path data-name="Path 252898" d="M7.536 22.728a19.661 19.661 0 00-5.518.229 1.338 1.338 0 00-1.062.98 31.637 31.637 0 0014.379 34.834 1.361 1.361 0 001.478-.04 19.772 19.772 0 008.565-15.844A19.9 19.9 0 007.536 22.728" fill="#fe3b67"/><path data-name="Path 252899" d="M27.477 61.716a1.342 1.342 0 001.319 1.588h2.858a31.641 31.641 0 009.3-1.391l1.317-7.063a8.391 8.391 0 00-6.711-9.787l-1.51-.282a3.357 3.357 0 00-3.913 2.69z" fill="#00b58a"/><path data-name="Path 252900" d="M63.307 31.652A31.63 31.63 0 0047.772 4.414a1.318 1.318 0 00-1.194-.078 20.013 20.013 0 00-3.33 34.878 13.342 13.342 0 015.509 13.482l-1.184 6.311a31.633 31.633 0 0015.734-27.355" fill="#0276f1"/><path data-name="Path 252901" d="M135.008 46.449h3.936a1.006 1.006 0 001.006-1.006V16.816h-3.936a2.012 2.012 0 00-2.012 2.012V45.44a1.006 1.006 0 001.006 1.006" fill="#1a3755"/><path data-name="Path 252902" d="M118.865 28.738a5.922 5.922 0 11-5.922 5.921 5.928 5.928 0 015.922-5.921m0-5.867a11.789 11.789 0 1011.789 11.789 11.789 11.789 0 00-11.789-11.789" fill="#1a3755"/><path data-name="Path 252903" d="M155.129 28.738a5.922 5.922 0 11-5.922 5.921 5.928 5.928 0 015.922-5.921m0-5.867a11.789 11.789 0 1011.789 11.789 11.789 11.789 0 00-11.789-11.789" fill="#1a3755"/><path data-name="Path 252904" d="M212.147 32.929v12.514a1.006 1.006 0 001.006 1.006h3.944a1.006 1.006 0 001.006-1.006V33.767a5.029 5.029 0 015.029-5.029h3.8a1.006 1.006 0 001.006-1.006v-4.861H222.2a10.058 10.058 0 00-10.053 10.058" fill="#1a3755"/><path data-name="Path 252905" d="M170.321 32.929v12.514a1.006 1.006 0 001.006 1.006h3.946a1.006 1.006 0 001.006-1.006V33.767a5.029 5.029 0 015.029-5.029h3.8a1.006 1.006 0 001.006-1.006v-4.861h-5.738a10.058 10.058 0 00-10.058 10.058" fill="#1a3755"/><path data-name="Path 252906" d="M209.181 22.818h-7.023a2.01 2.01 0 00-1.457.625l-5.355 5.627V16.816h-3.936a2.012 2.012 0 00-2.012 2.012V45.44a1.006 1.006 0 001.006 1.006h4.942v-8.854l1.948-2.08 5.355 10.419a1.006 1.006 0 00.894.546h5.638l-7.592-15.552z" fill="#1a3755"/><path data-name="Path 252907" d="M285.942 22.831h-3.83a1.007 1.007 0 00-.955.686l-4.407 13.11-3.461-13.047a1.007 1.007 0 00-.973-.749h-4.427a1.007 1.007 0 00-.973.749l-3.461 13.047-4.408-13.11a1.007 1.007 0 00-.955-.686h-3.831a1.007 1.007 0 00-.954 1.328l7.276 21.644a1.007 1.007 0 00.955.686h4.481a1.007 1.007 0 00.973-.748l3.11-11.724 3.11 11.724a1.007 1.007 0 00.973.748h4.481a1.007 1.007 0 00.955-.686l7.277-21.645a1.007 1.007 0 00-.955-1.328" fill="#1a3755"/><path data-name="Path 252908" d="M246.054 39.088a1.058 1.058 0 00-1.187.128 5.916 5.916 0 01-9.466-2.942v-.009h11.4v.009h5.08a1 1 0 001.006-.934q.021-.343.021-.692a11.808 11.808 0 10-3.082 7.949 1.013 1.013 0 00-.258-1.577zm-4.957-10.369a5.932 5.932 0 015.249 3.181h-10.5a5.931 5.931 0 015.249-3.181" fill="#1a3755"/><path data-name="Path 252909" d="M105.196 41.364a.938.938 0 00.181-.777 1 1 0 00-.49-.672l-3.74-2.082a1.017 1.017 0 00-1.285.3 6.948 6.948 0 01-2.017 1.828 7.9 7.9 0 01-4.112 1.085 7.7 7.7 0 01-6.012-2.593 9.859 9.859 0 01-2.281-6.783 9.86 9.86 0 012.281-6.783 7.709 7.709 0 016.012-2.592 7.9 7.9 0 014.111 1.085 6.971 6.971 0 012.056 1.879 1.015 1.015 0 001.247.319l3.85-1.954a.99.99 0 00.516-.658.948.948 0 00-.165-.8 12.834 12.834 0 00-2.646-2.626 14.556 14.556 0 00-8.883-2.732 15.218 15.218 0 00-7.586 1.888 13.361 13.361 0 00-5.188 5.25 15.78 15.78 0 00-1.868 7.721 15.654 15.654 0 001.867 7.7 13.39 13.39 0 005.189 5.229 15.2 15.2 0 007.586 1.888 14.635 14.635 0 008.885-2.711 12.7 12.7 0 002.5-2.414" fill="#1a3755"/></g></g></g></svg>