<svg data-name="Layer 1" xmlns="http://www.w3.org/2000/svg" viewBox="0 0 48 48"><path data-name="mic FILL1 wght400 GRAD0 opsz24" d="M24 30.3c-2 0-4-.8-5.4-2.2-1.4-1.4-2.2-3.4-2.2-5.4V7.6c0-2 .8-4 2.2-5.4C20 .8 22 0 24 0c2 0 4 .8 5.4 2.2 1.4 1.4 2.2 3.4 2.2 5.4v15.2c0 2-.8 4-2.2 5.4-1.4 1.4-3.4 2.2-5.4 2.2zM21.5 48v-7.8c-4.2-.5-8.1-2.6-10.9-5.9-2.8-3.2-4.4-7.3-4.3-11.6h5.1c0 3.4 1.3 6.6 3.7 8.9 2.3 2.4 5.6 3.8 8.9 3.7 3.4 0 6.6-1.3 8.9-3.7 2.4-2.3 3.8-5.6 3.7-8.9h5.1c0 4.3-1.5 8.4-4.3 11.6-2.7 3.3-6.6 5.4-10.9 5.9V48h-5.1z" fill="#1f4062"/></svg>