<svg xmlns="http://www.w3.org/2000/svg" width="627" height="428.45" viewBox="0 0 627 428.45"><defs><clipPath id="a"><path data-name="Rectangle 122198" fill="none" d="M0 0h521.501v115.052H0z"/></clipPath></defs><g data-name="Group 67907"><g data-name="Group 35340"><path data-name="Rectangle 121832" fill="#fff" d="M0 0h627v428.45H0z"/></g><g data-name="Group 66676"><g data-name="Group 35955" clip-path="url(#a)" transform="translate(53 156)"><path data-name="Path 252896" d="M57.527 0a57.535 57.535 0 00-11.4 1.145 1.228 1.228 0 00-.968 1.341 13.4 13.4 0 0026.564.422A1.224 1.224 0 0070.8 1.54 57.678 57.678 0 0057.527 0" fill="#fe3b67"/><path data-name="Path 252897" d="M8.684 30.35l23.125 3.936a6.1 6.1 0 007.1-6.5L37.136 5.435a1.224 1.224 0 00-1.7-1.028 57.728 57.728 0 00-27.6 24.114 1.224 1.224 0 00.846 1.828" fill="#f3b411"/><path data-name="Path 252898" d="M13.7 41.307a35.733 35.733 0 00-10.028.417 2.431 2.431 0 00-1.931 1.782 57.5 57.5 0 0026.132 63.3 2.474 2.474 0 002.686-.072 35.933 35.933 0 0015.567-28.8A36.163 36.163 0 0013.7 41.307" fill="#fe3b67"/><path data-name="Path 252899" d="M49.936 112.161a2.44 2.44 0 002.4 2.887h5.194a57.5 57.5 0 0016.9-2.528l2.393-12.836a15.25 15.25 0 00-12.2-17.787l-2.746-.507a6.1 6.1 0 00-7.115 4.879z" fill="#00b58a"/><path data-name="Path 252900" d="M115.052 57.525A57.484 57.484 0 0086.819 8.023a2.4 2.4 0 00-2.169-.142 36.372 36.372 0 00-6.052 63.383 24.247 24.247 0 0110.011 24.505l-2.153 11.471a57.489 57.489 0 0028.595-49.715" fill="#0276f1"/><path data-name="Path 252901" d="M245.363 84.417h7.153a1.828 1.828 0 001.824-1.831V30.562h-7.153a3.656 3.656 0 00-3.656 3.656v48.368a1.828 1.828 0 001.828 1.828" fill="#1a3755"/><path data-name="Path 252902" d="M216.023 52.229a10.762 10.762 0 11-10.762 10.762 10.774 10.774 0 0110.762-10.762m0-10.663a21.425 21.425 0 1021.426 21.425 21.425 21.425 0 00-21.426-21.425" fill="#1a3755"/><path data-name="Path 252903" d="M281.931 52.229a10.762 10.762 0 11-10.763 10.762 10.774 10.774 0 0110.763-10.762m0-10.663a21.425 21.425 0 1021.426 21.425 21.425 21.425 0 00-21.426-21.425" fill="#1a3755"/><path data-name="Path 252904" d="M385.554 59.846v22.743a1.828 1.828 0 001.828 1.828h7.171a1.828 1.828 0 001.828-1.828v-21.22a9.14 9.14 0 019.139-9.139h6.913a1.828 1.828 0 001.828-1.828v-8.836h-10.427a18.28 18.28 0 00-18.28 18.28" fill="#1a3755"/><path data-name="Path 252905" d="M309.54 59.846v22.743a1.828 1.828 0 001.828 1.828h7.171a1.828 1.828 0 001.828-1.828v-21.22a9.14 9.14 0 019.139-9.139h6.913a1.828 1.828 0 001.828-1.828v-8.836H327.82a18.28 18.28 0 00-18.28 18.28" fill="#1a3755"/><path data-name="Path 252906" d="M380.164 41.469H367.4a3.653 3.653 0 00-2.647 1.135l-9.733 10.227V30.562h-7.153a3.656 3.656 0 00-3.656 3.656v48.368a1.828 1.828 0 001.828 1.828h8.981v-16.1l3.541-3.781 9.731 18.935a1.828 1.828 0 001.626.992h10.246l-13.8-28.263z" fill="#1a3755"/><path data-name="Path 252907" d="M519.669 41.493h-6.961a1.831 1.831 0 00-1.735 1.247l-8.01 23.827-6.291-23.712a1.83 1.83 0 00-1.769-1.361h-8.045a1.829 1.829 0 00-1.769 1.361l-6.29 23.712-8.008-23.827a1.831 1.831 0 00-1.735-1.247h-6.965a1.83 1.83 0 00-1.734 2.413l13.224 39.337a1.83 1.83 0 001.735 1.247h8.143a1.83 1.83 0 001.768-1.36l5.652-21.307 5.654 21.305a1.83 1.83 0 001.768 1.36h8.143a1.83 1.83 0 001.735-1.247l13.225-39.337a1.831 1.831 0 00-1.735-2.413" fill="#1a3755"/><path data-name="Path 252908" d="M447.178 71.037a1.923 1.923 0 00-2.157.232 10.752 10.752 0 01-17.2-5.346h-.006.006l-.006-.017h20.715l-.006.017h9.232a1.824 1.824 0 001.828-1.7q.037-.624.038-1.257a21.46 21.46 0 10-5.6 14.447 1.84 1.84 0 00-.449-2.864zm-9.009-18.845a10.78 10.78 0 019.539 5.781H428.63a10.78 10.78 0 019.539-5.781" fill="#1a3755"/><path data-name="Path 252909" d="M191.182 75.175a1.705 1.705 0 00.328-1.412 1.809 1.809 0 00-.891-1.221l-6.8-3.784a1.848 1.848 0 00-2.335.552 12.628 12.628 0 01-3.666 3.323 14.355 14.355 0 01-7.472 1.972 14 14 0 01-10.927-4.712c-2.751-3.087-4.146-7.234-4.146-12.327s1.395-9.24 4.146-12.328a14.011 14.011 0 0110.927-4.711 14.358 14.358 0 017.472 1.972 12.67 12.67 0 013.737 3.416 1.845 1.845 0 002.267.58l7-3.551a1.8 1.8 0 00.937-1.2 1.722 1.722 0 00-.3-1.449 23.324 23.324 0 00-4.81-4.772 26.453 26.453 0 00-16.143-4.965 27.657 27.657 0 00-13.786 3.43 24.281 24.281 0 00-9.429 9.542 28.678 28.678 0 00-3.4 14.032 28.45 28.45 0 003.393 13.99 24.335 24.335 0 009.431 9.5 27.625 27.625 0 0013.786 3.43 26.6 26.6 0 0016.147-4.928 23.086 23.086 0 004.536-4.388" fill="#1a3755"/></g></g></g></svg>