<svg data-name="Group 66641" xmlns="http://www.w3.org/2000/svg" viewBox="0 0 36 36"><defs><clipPath id="a"><path fill="none" stroke-width="0" d="M.1.1h35.8v35.8H.1z"/></clipPath></defs><g data-name="Group 66641-2" clip-path="url(#a)"><path data-name="Path 277621" d="M31.9.1c2.2 0 4 1.8 4 4v27.8c0 2.2-1.8 4-4 4H4.1c-2.2 0-4-1.8-4-4V4.1c0-2.2 1.8-4 4-4h27.8zm-1 30.8V20.4c0-3.6-2.9-6.5-6.5-6.5-1.9 0-3.6 1-4.6 2.6v-2.2h-5.5v16.6h5.5v-9.8c0-1.5 1.2-2.8 2.7-2.8 1.5 0 2.8 1.2 2.8 2.7v9.9h5.5m-23-19.7c1.9 0 3.3-1.5 3.3-3.4S9.6 4.5 7.7 4.5 4.4 6 4.4 7.9c0 1.8 1.5 3.3 3.3 3.3m2.9 3.1H5.1v16.6h5.5V14.3z" fill="#bec8d4"/></g></svg>