<svg xmlns="http://www.w3.org/2000/svg" width="36" height="36" viewBox="0 0 36 36"><path data-name="Icon awesome-twitter-square" d="M32.143 0H3.857A3.858 3.858 0 000 3.857v28.286A3.858 3.858 0 003.857 36h28.286A3.858 3.858 0 0036 32.143V3.857A3.858 3.858 0 0032.143 0zm-3.93 12.761c.016.225.016.458.016.683a14.892 14.892 0 01-14.994 14.994 14.926 14.926 0 01-8.092-2.362 11.1 11.1 0 001.27.064 10.566 10.566 0 006.541-2.25 5.277 5.277 0 01-4.926-3.656 5.68 5.68 0 002.379-.1 5.271 5.271 0 01-4.219-5.175v-.064a5.267 5.267 0 002.379.667 5.259 5.259 0 01-2.347-4.384 5.2 5.2 0 01.715-2.66A14.964 14.964 0 0017.8 14.03a5.281 5.281 0 018.992-4.813 10.327 10.327 0 003.343-1.27 5.257 5.257 0 01-2.314 2.9 10.488 10.488 0 003.037-.82 11.093 11.093 0 01-2.645 2.734z" fill="#bec8d4"/></svg>