<svg id="Group_66616" data-name="Group 66616" xmlns="http://www.w3.org/2000/svg" version="1.1" viewBox="0 0 362 80"><defs><clipPath id="clippath"><path stroke-width="0" fill="none" d="M.1 1.3h361.8v77.3H.1z"/></clipPath><style>.cls-2{stroke-width:0;fill:#fff}</style></defs><g clip-path="url(#clippath)"><g id="Group_35955" data-name="Group 35955"><path id="Path_252896" data-name="Path 252896" class="cls-2" d="M40 1.3c-2.7 0-5.3.3-7.9.8-.4 0-.7.5-.7.9.6 4.6 4.6 8 9.2 8 4.5 0 8.4-3.2 9.2-7.7 0-.4-.2-.8-.6-.9-3-.7-6.1-1-9.2-1"/><path id="Path_252897" data-name="Path 252897" class="cls-2" d="M6.1 21.7l16 2.6c2.3.4 4.4-1.1 4.9-3.4v-1l-1.2-15c0-.5-.5-.8-.9-.8h-.2C16.7 7.3 10 13 5.6 20.3c-.2.4-.1.9.3 1.1 0 0 .2 0 .3.1"/><path id="Path_252898" data-name="Path 252898" class="cls-2" d="M9.6 29.1c-2.3-.2-4.7-.1-7 .3-.6.1-1.2.6-1.3 1.2C.5 33.7.1 36.8.1 40c0 13.7 7.4 26.3 19.3 33.1.6.3 1.3.3 1.9 0 6.5-4.3 10.6-11.5 10.8-19.4.3-12.6-9.6-23.4-22.5-24.6"/><path id="Path_252899" data-name="Path 252899" class="cls-2" d="M34.8 76.7c-.2.9.4 1.8 1.3 1.9H40c4 0 7.9-.6 11.7-1.7l1.7-8.6c1-5.6-2.7-10.9-8.3-11.9h-.2l-1.9-.3c-2.3-.4-4.5 1-4.9 3.3l-3.4 17.4z"/><path id="Path_252900" data-name="Path 252900" class="cls-2" d="M79.9 40c0-13.8-7.6-26.5-19.6-33.3-.5-.3-1-.3-1.5-.1-7.5 3.1-13.1 9.7-14.7 17.7-1.9 9.7 2.3 19.5 10.5 24.9 5.4 3.6 8.2 10.1 6.9 16.5L60 73.4C72.2 66.7 79.8 53.9 79.8 40"/><path id="Path_252901" data-name="Path 252901" class="cls-2" d="M170.3 58.1h5c.7 0 1.3-.5 1.3-1.2v-35h-5c-1.4 0-2.5 1.1-2.5 2.5v32.5c0 .7.6 1.2 1.3 1.2"/><path id="Path_252902" data-name="Path 252902" class="cls-2" d="M150 36.4c4 .1 7.1 3.5 7 7.5-.1 4-3.5 7.1-7.5 7-3.9-.1-7-3.3-7-7.2 0-4.1 3.4-7.3 7.5-7.2m0-7.2c-8 .3-14.2 6.9-13.9 14.9S143 58.4 151 58.1c7.8-.2 14-6.6 14-14.4-.1-8.1-6.8-14.5-14.9-14.4"/><path id="Path_252903" data-name="Path 252903" class="cls-2" d="M195.7 36.4c4 .1 7.1 3.5 7 7.5-.1 4-3.5 7.1-7.5 7-3.9-.1-7-3.3-7-7.2 0-4.1 3.4-7.3 7.5-7.2m0-7.2c-8 .3-14.2 6.9-13.9 14.9.3 8 6.9 14.2 14.9 13.9 7.8-.2 14-6.6 14-14.4-.1-8.1-6.8-14.5-14.9-14.4"/><path id="Path_252904" data-name="Path 252904" class="cls-2" d="M267.6 41.6v15.3c0 .7.6 1.2 1.3 1.2h5c.7 0 1.3-.5 1.3-1.2V42.6c0-3.4 2.9-6.2 6.3-6.1h4.8c.7 0 1.3-.5 1.3-1.2v-5.9h-7.2c-6.9-.1-12.6 5.4-12.7 12.3"/><path id="Path_252905" data-name="Path 252905" class="cls-2" d="M214.8 41.6v15.3c0 .7.6 1.2 1.3 1.2h5c.7 0 1.3-.5 1.3-1.2V42.6c0-3.4 2.9-6.2 6.3-6.1h4.8c.7 0 1.3-.5 1.3-1.2v-5.9h-7.2c-6.9-.1-12.6 5.4-12.7 12.3"/><path id="Path_252906" data-name="Path 252906" class="cls-2" d="M263.8 29.2h-8.9c-.7 0-1.4.3-1.8.8l-6.8 6.9v-15h-5c-1.4 0-2.5 1.1-2.5 2.5v32.5c0 .7.6 1.2 1.3 1.2h6.2V47.3l2.5-2.5 6.8 12.7c.2.4.7.7 1.1.7h7.1l-9.6-19 9.6-9.9z"/><path id="Path_252907" data-name="Path 252907" class="cls-2" d="M360.6 29.2h-4.8c-.5 0-1 .3-1.2.8L349 46l-4.4-15.9c-.2-.5-.7-.9-1.2-.9h-5.6c-.6 0-1.1.4-1.2.9L332.2 46l-5.6-16c-.2-.5-.7-.8-1.2-.8h-4.8c-.7 0-1.2.5-1.3 1.2v.4l9.2 26.4c.2.5.7.8 1.2.8h5.6c.6 0 1.1-.4 1.2-.9l3.9-14.3 3.9 14.3c.2.5.7.9 1.2.9h5.6c.5 0 1-.3 1.2-.8l9.2-26.4c.2-.6-.1-1.3-.8-1.6h-.4"/><path id="Path_252908" data-name="Path 252908" class="cls-2" d="M310.3 49.1c-.5-.3-1.1-.2-1.5.2-1.3 1.1-3 1.7-4.8 1.7a7.5 7.5 0 01-7.2-5.3h20.8c.7 0 1.2-.5 1.3-1.1v-.8c.3-8.2-6.2-15.1-14.4-15.3-8.2-.3-15.1 6.2-15.3 14.4s6.2 15.1 14.4 15.3h.4c4.2 0 8.1-1.7 11-4.7.5-.5.5-1.3 0-1.7 0 0-.2-.2-.3-.2l-4.4-2.4zm-6.2-12.7c2.8 0 5.3 1.5 6.6 3.9h-13.2c1.3-2.4 3.9-3.9 6.6-3.9"/><path id="Path_252909" data-name="Path 252909" class="cls-2" d="M132.7 51.9c.2-.3.3-.6.2-.9 0-.4-.3-.7-.6-.8l-4.7-2.5c-.6-.3-1.2-.1-1.6.4-.7.9-1.6 1.7-2.5 2.2-1.6.9-3.4 1.4-5.2 1.3-2.9 0-5.6-1.1-7.6-3.2-2-2.3-3-5.3-2.9-8.3-.1-3 .9-6 2.9-8.3 1.9-2.1 4.7-3.3 7.6-3.2 1.8 0 3.6.4 5.2 1.3 1 .6 1.9 1.4 2.6 2.3.4.5 1 .6 1.6.4l4.9-2.4c.3-.2.6-.5.6-.8 0-.3 0-.7-.2-1-1-1.2-2.1-2.3-3.3-3.2-3.3-2.3-7.2-3.4-11.2-3.3-3.3 0-6.6.7-9.6 2.3-2.7 1.5-5 3.7-6.5 6.4-1.6 2.9-2.4 6.1-2.4 9.4 0 3.3.8 6.5 2.4 9.4 1.5 2.7 3.8 4.9 6.5 6.4 2.9 1.6 6.2 2.4 9.6 2.3 4 .1 7.9-1.1 11.2-3.3 1.2-.8 2.2-1.8 3.1-2.9"/></g></g></svg>