<svg id="Group_35956" data-name="Group 35956" xmlns="http://www.w3.org/2000/svg" version="1.1" viewBox="0 0 216 50"><defs><clipPath id="clippath"><path fill="none" stroke-width="0" d="M1.3 1.5h213.4v47.1H1.3z"/></clipPath><style>.cls-3,.cls-5{stroke-width:0}.cls-3{fill:#fe3b67}.cls-5{fill:#1a3755}</style></defs><g clip-path="url(#clippath)"><g id="Group_35955" data-name="Group 35955"><path id="Path_252896" data-name="Path 252896" class="cls-3" d="M24.8 1.5c-1.6 0-3.1.2-4.7.5-.3 0-.4.3-.4.5.3 3 3.1 5.2 6.1 4.8 2.5-.3 4.4-2.2 4.8-4.6 0-.3-.1-.5-.4-.6-1.8-.4-3.6-.6-5.4-.6"/><path id="Path_252897" data-name="Path 252897" d="M4.9 13.9l9.5 1.6c1.4.2 2.7-.7 2.9-2.1v-.6l-.7-9.1c0-.3-.3-.5-.5-.5h-.2c-4.7 2-8.7 5.4-11.3 9.9-.1.2 0 .5.2.7H5" fill="#f3b411" stroke-width="0"/><path id="Path_252898" data-name="Path 252898" class="cls-3" d="M6.9 18.4c-1.4-.1-2.7 0-4.1.2-.4 0-.7.4-.8.7-2.5 10 1.8 20.6 10.7 25.9.3.2.8.2 1.1 0 3.9-2.7 6.3-7.1 6.4-11.8.1-7.7-5.6-14.2-13.3-15"/><path id="Path_252899" data-name="Path 252899" d="M21.7 47.4c0 .5.3 1.1.8 1.2h2.3c2.3 0 4.7-.3 6.9-1l1-5.3c.6-3.4-1.6-6.6-5-7.3l-1.1-.2c-1.4-.3-2.7.6-2.9 2l-2 10.6z" stroke-width="0" fill="#00b58a"/><path id="Path_252900" data-name="Path 252900" d="M48.4 25c0-8.3-4.4-16-11.6-20.3-.3-.2-.6-.2-.9 0-7.5 3.3-11 12-7.7 19.6 1.1 2.6 2.9 4.8 5.3 6.4 3.2 2.2 4.8 6.2 4.1 10l-.9 4.7c7.2-4.2 11.7-12 11.7-20.3" fill="#0276f1" stroke-width="0"/><path id="Path_252901" data-name="Path 252901" class="cls-5" d="M101.7 36h2.9c.4 0 .7-.3.7-.7V14h-2.9c-.8 0-1.5.7-1.5 1.5v19.8c0 .4.3.7.7.7"/><path id="Path_252902" data-name="Path 252902" class="cls-5" d="M89.7 22.8c2.4 0 4.4 2 4.4 4.4s-2 4.4-4.4 4.4-4.4-2-4.4-4.4c0-2.4 2-4.4 4.4-4.4m0-4.3c-4.8 0-8.8 3.9-8.8 8.8s3.9 8.8 8.8 8.8c4.8 0 8.8-3.9 8.8-8.8s-3.9-8.8-8.8-8.8"/><path id="Path_252903" data-name="Path 252903" class="cls-5" d="M116.7 22.8c2.4 0 4.4 2 4.4 4.4 0 2.4-2 4.4-4.4 4.4s-4.4-2-4.4-4.4c0-2.4 2-4.4 4.4-4.4m0-4.3c-4.8 0-8.8 3.9-8.8 8.8 0 4.8 3.9 8.8 8.8 8.8 4.8 0 8.8-3.9 8.8-8.8 0-4.8-3.9-8.8-8.8-8.8"/><path id="Path_252904" data-name="Path 252904" class="cls-5" d="M159.1 25.9v9.3c0 .4.3.7.7.7h2.9c.4 0 .7-.3.7-.7v-8.7c0-2.1 1.7-3.7 3.7-3.7h2.8c.4 0 .7-.3.7-.7v-3.6h-4.3c-4.1 0-7.5 3.3-7.5 7.5"/><path id="Path_252905" data-name="Path 252905" class="cls-5" d="M128 25.9v9.3c0 .4.3.7.7.7h2.9c.4 0 .7-.3.7-.7v-8.7c0-2.1 1.7-3.7 3.7-3.7h2.8c.4 0 .7-.3.7-.7v-3.6h-4.3c-4.1 0-7.5 3.3-7.5 7.5"/><path id="Path_252906" data-name="Path 252906" class="cls-5" d="M156.9 18.4h-5.2c-.4 0-.8.2-1.1.5l-4 4.2V14h-2.9c-.8 0-1.5.7-1.5 1.5v19.8c0 .4.3.7.7.7h3.7v-6.6l1.4-1.5 4 7.7c.1.2.4.4.7.4h4.2l-5.6-11.6 5.6-6z"/><path id="Path_252907" data-name="Path 252907" class="cls-5" d="M213.9 18.4h-2.8c-.3 0-.6.2-.7.5l-3.3 9.7-2.6-9.7c0-.3-.4-.6-.7-.6h-3.3c-.3 0-.6.2-.7.6l-2.6 9.7-3.3-9.7c-.1-.3-.4-.5-.7-.5h-2.8c-.4 0-.7.3-.7.7v.2l5.4 16.1c.1.3.4.5.7.5h3.3c.3 0 .6-.2.7-.6l2.3-8.7 2.3 8.7c0 .3.4.6.7.6h3.3c.3 0 .6-.2.7-.5l5.4-16.1c.1-.4 0-.8-.5-.9h-.2"/><path id="Path_252908" data-name="Path 252908" class="cls-5" d="M184.3 30.5c-.3-.2-.6-.1-.9 0-1.9 1.5-4.6 1.3-6.2-.6-.4-.5-.7-1-.8-1.6s8.5 0 8.5 0h3.8c.4 0 .7-.3.7-.7v-.5c0-4.8-3.9-8.8-8.8-8.8-4.8 0-8.8 3.9-8.8 8.8 0 4.8 3.9 8.8 8.8 8.8 2.5 0 4.8-1 6.5-2.9.3-.3.3-.8 0-1.1l-.1-.1-2.6-1.4zm-3.7-7.7c1.6 0 3.1.9 3.9 2.4h-7.8c.8-1.5 2.3-2.4 3.9-2.4"/><path id="Path_252909" data-name="Path 252909" class="cls-5" d="M79.5 32.2c.1-.2.2-.4.1-.6 0-.2-.2-.4-.4-.5l-2.8-1.6c-.3-.2-.7 0-1 .2-.4.5-.9 1-1.5 1.4-.9.5-2 .8-3.1.8-1.7 0-3.3-.7-4.5-1.9-1.2-1.4-1.8-3.2-1.7-5 0-1.8.5-3.6 1.7-5 1.1-1.3 2.8-2 4.5-1.9 1.1 0 2.1.3 3.1.8.6.4 1.1.8 1.5 1.4.2.3.6.4.9.2l2.9-1.5c.2 0 .3-.3.4-.5 0-.2 0-.4-.1-.6-.6-.7-1.2-1.4-2-2-1.9-1.4-4.2-2.1-6.6-2-2 0-3.9.5-5.6 1.4-1.6.9-3 2.3-3.9 3.9-1.9 3.6-1.9 7.9 0 11.5.9 1.6 2.2 3 3.9 3.9 1.7 1 3.7 1.4 5.6 1.4 2.4 0 4.7-.6 6.6-2 .7-.5 1.3-1.1 1.9-1.8"/></g></g></svg>