<svg data-name="Group 34581" xmlns="http://www.w3.org/2000/svg" viewBox="0 0 36 36"><defs><clipPath id="a"><path fill="none" stroke-width="0" d="M.1.1h35.8v35.8H.1z"/></clipPath></defs><g data-name="Group 34581-2" clip-path="url(#a)"><path data-name="Path 155242" d="M10.5.1h15c5.7 0 10.4 4.6 10.4 10.4v15c0 5.7-4.6 10.4-10.4 10.4h-15C4.8 35.9.1 31.3.1 25.5v-15C.1 4.8 4.8.1 10.5.1m-.4 3.6c-3.6 0-6.4 2.9-6.4 6.4v15.7c0 3.6 2.9 6.4 6.4 6.4h15.8c3.6 0 6.4-2.9 6.4-6.4V10.1c0-3.6-2.9-6.4-6.4-6.4H10.2m17.2 2.7c1.2 0 2.2 1 2.2 2.2s-1 2.2-2.2 2.2-2.2-1-2.2-2.2c0-1.2 1-2.2 2.2-2.2M18 9.1c4.9 0 8.9 4 8.9 8.9s-4 8.9-8.9 8.9-8.9-4-8.9-8.9 4-8.9 8.9-8.9m0 3.5c-3 0-5.4 2.4-5.4 5.4s2.4 5.4 5.4 5.4 5.4-2.4 5.4-5.4-2.4-5.4-5.4-5.4" fill="#bec8d4"/></g></svg>