<svg version="1.0" xmlns="http://www.w3.org/2000/svg" width="240" height="240" viewBox="0 0 180 180"><path d="M83.8 40.7c-2.6.6-2.2 2 1.2 5.5 2.6 2.5 3.6 2.9 6.2 2.4 6.1-1.2 9.2-6.7 4.6-8-2.6-.6-9.4-.6-12 .1zm18.4 7.3c-11.5 8.3-11.7 25.4-.4 35.1 6.5 5.7 7.5 8 7 15.9-.5 6.3-.4 6.8 1.1 6 3.3-1.7 10.3-10.2 12.4-14.8 4.5-10.2 3.1-24.4-3.2-34.4C116.5 51.7 109 45 107 45c-.4 0-2.6 1.3-4.8 3zM55.3 67.2c-.4.7-.7 4.7-.7 8.8 0 6 .6 8.8 2.7 13.4 3.4 7.4 7.6 12.7 12.1 15.1l3.5 1.9 2.7-2.4c3.8-3.5 6.6-10.4 6.6-16.1-.1-9-5.6-17.1-13.9-20.6-4.1-1.6-11.9-1.7-13-.1zm34 25c-.4.7-1.5 5.1-2.4 9.6-1.4 7.2-1.4 8.5-.2 8.9 1.7.7 12.2-.3 13.1-1.2.3-.3.8-3.5 1-7 .4-5.9.2-6.6-2.3-8.9-3-2.8-7.8-3.5-9.2-1.4zm-61.1 29.5c-1.8.7-4.2 5.7-4.2 8.8 0 3.9 5 8.5 9.2 8.5 4.1 0 7.8-2.3 6.3-3.9-.8-.8-2-.7-4.2.1-2.8 1-3.5.9-5.2-.7-2.5-2.2-2.7-6.7-.5-8.9 1.8-1.9 5.5-2.1 7.2-.4 1.9 1.9 4-.6 2.2-2.7-1.2-1.4-7.9-2-10.8-.8zM59 130c0 7.3.3 9 1.5 9s1.5-1.7 1.5-9-.3-9-1.5-9-1.5 1.7-1.5 9zm35 0c0 7.1.3 9 1.4 9 .8 0 1.6-1.2 1.8-2.7.4-3.7 2.3-3.9 3.8-.3.7 1.7 2 3 3 3 1.7 0 1.7-.3-.3-5l-2.1-5 2.4-2.5 2.3-2.5H104c-1.3 0-3.4 1-4.7 2.2l-2.3 2.1v-3.6c0-2.6-.4-3.7-1.5-3.7-1.2 0-1.5 1.7-1.5 9zm-47-5.3c-5.1 1.9-6.8 8.5-3 12.3 4.5 4.5 12 1.1 12-5.4 0-5-4.6-8.5-9-6.9zm5 4.8c1.8 2.1.3 5.5-2.4 5.5-3.3 0-5-2.3-3.6-4.9 1.2-2.4 4.2-2.7 6-.6zm18-4.8c-5.1 1.9-6.8 8.5-3 12.3 4.5 4.5 12 1.1 12-5.4 0-5-4.6-8.5-9-6.9zm5 4.8c1.8 2.1.3 5.5-2.4 5.5-3.3 0-5-2.3-3.6-4.9 1.2-2.4 4.2-2.7 6-.6zm11-4.8c-2.8 1-4 3.7-4 9 0 4 .4 5.3 1.5 5.3s1.5-1.1 1.5-3.6c0-4.8 1.6-7.4 4.5-7.4 1.8 0 2.5-.5 2.5-2 0-2-2.5-2.6-6-1.3zm24.5 1.8c-2 1.9-2.5 3.4-2.5 7.5 0 4.3.3 5 1.9 5 1.7 0 2-.8 2.3-5.3.3-4.8.5-5.2 3.1-5.5 1.9-.2 2.7-.9 2.7-2.3 0-2.8-4.5-2.5-7.5.6zm13-1.4c-5.1 2.9-5.9 7.6-2 11.4 2.7 2.8 7.6 3.3 9.5 1 1-1.2.9-1.6-.4-2.1-.9-.3-2.2-.4-3-.1-.8.3-2.2-.1-3.3-.8-1.6-1.3-1.2-1.4 4-1.5 4.9 0 5.7-.3 5.7-1.9 0-4.5-6.5-8.2-10.5-6zm6 3.9c.4.6-.7 1-2.5 1s-2.9-.4-2.5-1c.3-.6 1.5-1 2.5-1s2.2.4 2.5 1zm5.3-4.4c-.4.3.4 3.6 1.6 7.2 1.8 5.2 2.8 6.8 4.4 7 1.8.3 2.3-.3 2.8-2.7.8-3.9 2-4 2.8-.1.4 2.1 1.1 3 2.5 3 1.5 0 2.4-1.5 4-6.2 2.5-7.3 2.6-8.8.6-8.8-.8 0-1.9 1.7-2.6 4-1.4 4.6-2.4 4.4-3.3-.5-1-5.2-4.2-4.8-5.7.7l-1.2 4.3-1.4-4.3c-1.3-3.8-3-5.2-4.5-3.6z"/></svg>